<svg width="24" height="24" viewBox="0 0 24 24" fill="none" xmlns="http://www.w3.org/2000/svg">
<path d="M4.00036 18.9214L2.65036 18.3764C2.40451 18.2769 2.20824 18.0839 2.10472 17.8397C2.0012 17.5956 1.99891 17.3203 2.09836 17.0744L4.00036 12.3664V18.9214ZM8.86036 20.9994H7.00036C6.73514 20.9994 6.48079 20.8941 6.29325 20.7065C6.10572 20.519 6.00036 20.2646 6.00036 19.9994V13.9214L8.86036 20.9994ZM6.02236 5.96741L15.2944 2.22141C15.5402 2.12196 15.8155 2.12424 16.0597 2.22776C16.3038 2.33128 16.4969 2.52756 16.5964 2.77341L22.2154 16.6814C22.2646 16.8032 22.2893 16.9335 22.2882 17.0649C22.287 17.1962 22.26 17.3261 22.2086 17.447C22.1573 17.5679 22.0826 17.6775 21.9889 17.7695C21.8951 17.8616 21.7842 17.9343 21.6624 17.9834L12.3904 21.7294C12.2686 21.7786 12.1383 21.8034 12.0069 21.8022C11.8755 21.801 11.7457 21.774 11.6248 21.7227C11.5039 21.6713 11.3943 21.5966 11.3022 21.5029C11.2102 21.4092 11.1375 21.2982 11.0884 21.1764L5.47036 7.26941C5.42115 7.14761 5.39641 7.01731 5.39757 6.88595C5.39873 6.75459 5.42576 6.62475 5.47711 6.50384C5.52847 6.38293 5.60314 6.27332 5.69687 6.18128C5.79059 6.08923 5.90054 6.01656 6.02236 5.96741ZM9.00036 8.99941C9.26558 8.99941 9.51993 8.89405 9.70747 8.70651C9.895 8.51898 10.0004 8.26462 10.0004 7.99941C10.0004 7.73419 9.895 7.47984 9.70747 7.2923C9.51993 7.10476 9.26558 6.99941 9.00036 6.99941C8.73514 6.99941 8.48079 7.10476 8.29325 7.2923C8.10572 7.47984 8.00036 7.73419 8.00036 7.99941C8.00036 8.26462 8.10572 8.51898 8.29325 8.70651C8.48079 8.89405 8.73514 8.99941 9.00036 8.99941Z" fill="#757575"/>
</svg>
