<svg width="24" height="24" viewBox="0 0 24 24" fill="none" xmlns="http://www.w3.org/2000/svg">
<path d="M17.625 10.5625C17.625 12.1797 17.0977 13.6914 16.2188 14.8867L20.6484 19.3516C21.1055 19.7734 21.1055 20.5117 20.6484 20.9336C20.2266 21.3906 19.4883 21.3906 19.0664 20.9336L14.6016 16.4688C13.4062 17.3828 11.8945 17.875 10.3125 17.875C6.26953 17.875 3 14.6055 3 10.5625C3 6.55469 6.26953 3.25 10.3125 3.25C14.3203 3.25 17.625 6.55469 17.625 10.5625ZM9.46875 13.6562C9.46875 14.1484 9.82031 14.5 10.3125 14.5C10.7695 14.5 11.1562 14.1484 11.1562 13.6562V11.4062H13.4062C13.8633 11.4062 14.25 11.0547 14.25 10.5625C14.25 10.1055 13.8633 9.71875 13.4062 9.71875H11.1562V7.46875C11.1562 7.01172 10.7695 6.625 10.3125 6.625C9.82031 6.625 9.46875 7.01172 9.46875 7.46875V9.71875H7.21875C6.72656 9.71875 6.375 10.1055 6.375 10.5625C6.375 11.0547 6.72656 11.4062 7.21875 11.4062H9.46875V13.6562Z" fill="#757575"/>
</svg>
