<svg width="24" height="24" viewBox="0 0 24 24" fill="none" xmlns="http://www.w3.org/2000/svg">
<path d="M3.5 8.875C3.5 6.41406 5.50391 4.375 8 4.375H17C19.4609 4.375 21.5 6.41406 21.5 8.875V10.0703C20.1992 10.3164 19.25 11.4766 19.25 12.8125V14.5H5.75V12.8125C5.75 11.4766 4.76562 10.3164 3.5 10.0703V8.875ZM20.375 12.8125C20.375 12.1094 20.832 11.4766 21.5 11.2305C21.6758 11.1602 21.8516 11.125 22.0625 11.125C22.9766 11.125 23.75 11.8984 23.75 12.8125V19C23.75 19.6328 23.2227 20.125 22.625 20.125H21.5C20.8672 20.125 20.375 19.6328 20.375 19H4.625C4.625 19.6328 4.09766 20.125 3.5 20.125H2.375C1.74219 20.125 1.25 19.6328 1.25 19V12.8125C1.25 11.8984 1.98828 11.125 2.9375 11.125C3.11328 11.125 3.32422 11.1602 3.5 11.2305C4.13281 11.4766 4.625 12.1094 4.625 12.8125V15.625H20.375V12.8125Z" fill="#757575"/>
</svg>
