<svg width="24" height="24" viewBox="0 0 24 24" fill="none" xmlns="http://www.w3.org/2000/svg">
<path d="M2 7.75C2 6.51953 2.98438 5.5 4.25 5.5H20C21.2305 5.5 22.25 6.51953 22.25 7.75V16.75C22.25 18.0156 21.2305 19 20 19H4.25C2.98438 19 2 18.0156 2 16.75V7.75ZM13.5312 10C13.25 10 12.9688 10.1406 12.8281 10.3867L10.8594 13.3398L10.2266 12.5664C10.0859 12.3906 9.83984 12.25 9.59375 12.25C9.3125 12.25 9.06641 12.3906 8.92578 12.5664L6.67578 15.3789C6.46484 15.6602 6.42969 16.0117 6.57031 16.293C6.71094 16.5742 6.99219 16.75 7.34375 16.75H10.1562H11.8438H16.9062C17.1875 16.75 17.5039 16.6094 17.6445 16.3281C17.7852 16.0469 17.75 15.6953 17.6094 15.4492L14.2344 10.3867C14.0586 10.1406 13.8125 10 13.5312 10ZM7.625 11.125C8.22266 11.125 8.75 10.6328 8.75 10C8.75 9.40234 8.22266 8.875 7.625 8.875C6.99219 8.875 6.5 9.40234 6.5 10C6.5 10.6328 6.99219 11.125 7.625 11.125Z" fill="#4F4F4F"/>
</svg>
