<svg width="24" height="24" viewBox="0 0 24 24" fill="none" xmlns="http://www.w3.org/2000/svg">
<path d="M9.5 19H19C19.7956 19 20.5587 18.6839 21.1213 18.1213C21.6839 17.5587 22 16.7956 22 16V11.5H10.56L12.28 13.22C12.3537 13.2887 12.4128 13.3715 12.4538 13.4635C12.4948 13.5555 12.5168 13.6548 12.5186 13.7555C12.5204 13.8562 12.5018 13.9562 12.4641 14.0496C12.4264 14.143 12.3703 14.2278 12.299 14.299C12.2278 14.3703 12.143 14.4264 12.0496 14.4641C11.9562 14.5018 11.8562 14.5204 11.7555 14.5186C11.6548 14.5168 11.5555 14.4948 11.4635 14.4538C11.3715 14.4128 11.2887 14.3537 11.22 14.28L9.5 12.56V19ZM8 10V9C8 8.80222 7.94135 8.60888 7.83147 8.44443C7.72159 8.27998 7.56541 8.15181 7.38268 8.07612C7.19996 8.00043 6.99889 7.98063 6.80491 8.01921C6.61093 8.0578 6.43275 8.15304 6.29289 8.29289C6.15304 8.43275 6.0578 8.61093 6.01921 8.80491C5.98063 8.99889 6.00043 9.19996 6.07612 9.38268C6.15181 9.56541 6.27998 9.72159 6.44443 9.83147C6.60888 9.94135 6.80222 10 7 10H8ZM9.5 9V10H10.5C10.6978 10 10.8911 9.94135 11.0556 9.83147C11.22 9.72159 11.3482 9.56541 11.4239 9.38268C11.4996 9.19996 11.5194 8.99889 11.4808 8.80491C11.4422 8.61093 11.347 8.43275 11.2071 8.29289C11.0673 8.15304 10.8891 8.0578 10.6951 8.01921C10.5011 7.98063 10.3 8.00043 10.1173 8.07612C9.93459 8.15181 9.77841 8.27998 9.66853 8.44443C9.55865 8.60888 9.5 8.80222 9.5 9ZM9.5 6.708V4H19C19.7956 4 20.5587 4.31607 21.1213 4.87868C21.6839 5.44129 22 6.20435 22 7V10H12.792C12.9933 9.53937 13.0511 9.02875 12.9578 8.53478C12.8645 8.04081 12.6245 7.58643 12.269 7.23097C11.9136 6.8755 11.4592 6.63546 10.9652 6.54216C10.4712 6.44887 9.96063 6.50666 9.5 6.708ZM8 4V6.708C7.53937 6.50666 7.02875 6.44887 6.53478 6.54216C6.04081 6.63546 5.58643 6.8755 5.23097 7.23097C4.8755 7.58643 4.63546 8.04081 4.54216 8.53478C4.44887 9.02875 4.50666 9.53937 4.708 10H2V7C2 6.20435 2.31607 5.44129 2.87868 4.87868C3.44129 4.31607 4.20435 4 5 4H8ZM8 12.56V19H5C4.20435 19 3.44129 18.6839 2.87868 18.1213C2.31607 17.5587 2 16.7956 2 16V11.5H6.94L5.22 13.22C5.14631 13.2887 5.08721 13.3715 5.04622 13.4635C5.00523 13.5555 4.98319 13.6548 4.98141 13.7555C4.97963 13.8562 4.99816 13.9562 5.03588 14.0496C5.0736 14.143 5.12974 14.2278 5.20096 14.299C5.27218 14.3703 5.35701 14.4264 5.4504 14.4641C5.54379 14.5018 5.64382 14.5204 5.74452 14.5186C5.84523 14.5168 5.94454 14.4948 6.03654 14.4538C6.12854 14.4128 6.21134 14.3537 6.28 14.28L8 12.56Z" fill="#4F4F4F"/>
</svg>
