<svg width="24" height="24" viewBox="0 0 24 24" fill="none" xmlns="http://www.w3.org/2000/svg">
<g clip-path="url(#clip0_3014_265)">
<path d="M12 20C9.125 20 6.5 18.5 5.0625 16C3.625 13.5312 3.625 10.5 5.0625 8C6.5 5.53125 9.125 4 12 4C14.8438 4 17.4688 5.53125 18.9062 8C20.3438 10.5 20.3438 13.5312 18.9062 16C17.4688 18.5 14.8438 20 12 20ZM11.25 15.5H12.75V14.75V12.75H14.75H15.5V11.25H14.75H12.75V9.25V8.5H11.25V9.25V11.25H9.25H8.5V12.75H9.25H11.25V14.75V15.5Z" fill="#D19A3A"/>
</g>
<defs>
<clipPath id="clip0_3014_265">
<rect width="24" height="24" fill="white"/>
</clipPath>
</defs>
</svg>
