<svg width="32" height="32" viewBox="0 0 32 32" fill="none" xmlns="http://www.w3.org/2000/svg">
<path d="M22.0262 22.0012C22.2595 21.8199 22.4715 21.6079 22.8942 21.1852L28.1702 15.9079C28.2982 15.7812 28.2395 15.5612 28.0702 15.5012C27.2439 15.2148 26.4941 14.7433 25.8782 14.1226C25.2574 13.5066 24.7859 12.7568 24.4995 11.9306C24.4395 11.7612 24.2195 11.7026 24.0928 11.8306L18.8142 17.1066C18.3915 17.5292 18.1795 17.7412 17.9982 17.9746C17.7822 18.251 17.599 18.547 17.4488 18.8626C17.3222 19.1292 17.2275 19.4146 17.0382 19.9826L16.7928 20.7159L16.4035 21.8826L16.0395 22.9759C15.9941 23.1129 15.9877 23.2599 16.021 23.4003C16.0543 23.5408 16.126 23.6692 16.2281 23.7713C16.3301 23.8734 16.4586 23.9451 16.599 23.9784C16.7395 24.0117 16.8865 24.0053 17.0235 23.9599L18.1168 23.5959L19.2835 23.2066L20.0168 22.9612C20.5848 22.7719 20.8702 22.6786 21.1368 22.5506C21.4524 22.3994 21.7497 22.2163 22.0262 22.0012ZM29.8235 14.2559C30.3644 13.7148 30.6681 12.9811 30.668 12.2161C30.6679 11.4511 30.3639 10.7174 29.8228 10.1766C29.2818 9.63569 28.548 9.33191 27.783 9.33203C27.018 9.33216 26.2844 9.63618 25.7435 10.1772L25.5755 10.3479C25.4944 10.4272 25.434 10.5252 25.3996 10.6333C25.3652 10.7414 25.3578 10.8563 25.3782 10.9679C25.4048 11.1106 25.4515 11.3212 25.5382 11.5706C25.7115 12.0706 26.0395 12.7266 26.6568 13.3439C27.2742 13.9612 27.9302 14.2892 28.4302 14.4626C28.6808 14.5492 28.8902 14.5959 29.0328 14.6226C29.1444 14.6417 29.259 14.6338 29.3669 14.5995C29.4748 14.5651 29.5728 14.5054 29.6528 14.4252L29.8235 14.2559Z" fill="#282828"/>
<path fill-rule="evenodd" clip-rule="evenodd" d="M5.56267 4.22868C4 5.79002 4 8.30468 4 13.3327V18.666C4 23.694 4 26.2087 5.56267 27.77C7.12533 29.3313 9.63867 29.3327 14.6667 29.3327H17.3333C22.3613 29.3327 24.876 29.3327 26.4373 27.77C27.9747 26.234 28 23.7753 28 18.906L24.2427 22.6633C23.8827 23.0233 23.588 23.318 23.256 23.578C22.8666 23.883 22.4444 24.1437 21.9973 24.3553C21.5882 24.5394 21.1678 24.6975 20.7387 24.8287L17.656 25.8567C17.1666 26.0199 16.6415 26.0436 16.1394 25.9251C15.6374 25.8066 15.1782 25.5506 14.8135 25.1859C14.4487 24.8211 14.1927 24.362 14.0743 23.8599C13.9558 23.3578 13.9795 22.8327 14.1427 22.3433L14.508 21.25L15.1413 19.3487L15.1693 19.2607C15.3307 18.778 15.4627 18.3833 15.644 18.002C15.8573 17.554 16.1164 17.1349 16.4213 16.7447C16.6813 16.4113 16.976 16.118 17.336 15.758L22.6773 10.4153L24.16 8.93268L24.3293 8.76335C24.7824 8.30889 25.3209 7.94852 25.9138 7.70299C26.5067 7.45746 27.1423 7.33161 27.784 7.33268C27.5827 5.95935 27.192 4.98202 26.4373 4.22868C24.876 2.66602 22.3613 2.66602 17.3333 2.66602H14.6667C9.63867 2.66602 7.124 2.66602 5.56267 4.22868ZM9.66667 11.9993C9.66667 11.7341 9.77202 11.4798 9.95956 11.2922C10.1471 11.1047 10.4015 10.9993 10.6667 10.9993H19.3333C19.5985 10.9993 19.8529 11.1047 20.0404 11.2922C20.228 11.4798 20.3333 11.7341 20.3333 11.9993C20.3333 12.2646 20.228 12.5189 20.0404 12.7065C19.8529 12.894 19.5985 12.9993 19.3333 12.9993H10.6667C10.4015 12.9993 10.1471 12.894 9.95956 12.7065C9.77202 12.5189 9.66667 12.2646 9.66667 11.9993ZM9.66667 17.3327C9.66667 17.0675 9.77202 16.8131 9.95956 16.6256C10.1471 16.438 10.4015 16.3327 10.6667 16.3327H14C14.2652 16.3327 14.5196 16.438 14.7071 16.6256C14.8946 16.8131 15 17.0675 15 17.3327C15 17.5979 14.8946 17.8523 14.7071 18.0398C14.5196 18.2273 14.2652 18.3327 14 18.3327H10.6667C10.4015 18.3327 10.1471 18.2273 9.95956 18.0398C9.77202 17.8523 9.66667 17.5979 9.66667 17.3327ZM9.66667 22.666C9.66667 22.4008 9.77202 22.1464 9.95956 21.9589C10.1471 21.7714 10.4015 21.666 10.6667 21.666H12.6667C12.9319 21.666 13.1862 21.7714 13.3738 21.9589C13.5613 22.1464 13.6667 22.4008 13.6667 22.666C13.6667 22.9312 13.5613 23.1856 13.3738 23.3731C13.1862 23.5607 12.9319 23.666 12.6667 23.666H10.6667C10.4015 23.666 10.1471 23.5607 9.95956 23.3731C9.77202 23.1856 9.66667 22.9312 9.66667 22.666Z" fill="#282828"/>
</svg>
