<svg width="32" height="32" viewBox="0 0 32 32" fill="none" xmlns="http://www.w3.org/2000/svg">
<path d="M18.6641 16.666H13.3307C13.1539 16.666 12.9843 16.7363 12.8593 16.8613C12.7343 16.9863 12.6641 17.1559 12.6641 17.3327V20.2153C12.6641 20.3485 12.704 20.4786 12.7786 20.5888C12.8532 20.6991 12.9591 20.7845 13.0827 20.834L14.0161 21.2073C15.2879 21.7163 16.7069 21.7163 17.9787 21.2073L18.9121 20.834C19.0356 20.7845 19.1416 20.6991 19.2162 20.5888C19.2908 20.4786 19.3307 20.3485 19.3307 20.2153V17.3327C19.3307 17.1559 19.2605 16.9863 19.1355 16.8613C19.0104 16.7363 18.8409 16.666 18.6641 16.666Z" fill="#282828"/>
<path d="M10.6774 20.4927L4.0054 18.49C4.0454 22.642 4.28806 26.4673 5.75473 27.77C7.51206 29.3327 10.3414 29.3327 15.9974 29.3327C21.6534 29.3327 24.4827 29.3327 26.2401 27.77C27.7067 26.4673 27.9494 22.642 27.9894 18.49L21.3161 20.4914C21.2658 20.9746 21.0845 21.435 20.7917 21.8227C20.499 22.2104 20.1058 22.5108 19.6547 22.6913L18.7214 23.0647C16.9728 23.7643 15.022 23.7643 13.2734 23.0647L12.3401 22.6913C11.889 22.5108 11.4958 22.2104 11.203 21.8227C10.9103 21.435 10.729 20.9746 10.6787 20.4914M10.1427 6.66602H21.8521C25.1187 6.66602 26.7521 6.66602 27.8547 7.56335C28.0681 7.73668 28.261 7.92957 28.4334 8.14202C29.3307 9.24468 29.3307 10.878 29.3307 14.1447C29.3307 14.974 29.3307 15.3873 29.1307 15.7113C29.0914 15.7745 29.0468 15.8343 28.9974 15.89C28.7441 16.1753 28.3481 16.294 27.5547 16.5327L21.3307 18.3993V17.3327C21.3307 16.6254 21.0498 15.9472 20.5497 15.4471C20.0496 14.947 19.3713 14.666 18.6641 14.666H13.3307C12.6235 14.666 11.9452 14.947 11.4451 15.4471C10.945 15.9472 10.6641 16.6254 10.6641 17.3327V18.3993L4.44006 16.5327C3.64673 16.294 3.2494 16.1753 2.9974 15.89C2.94804 15.8343 2.90344 15.7745 2.86406 15.7113C2.66406 15.3873 2.66406 14.974 2.66406 14.1447C2.66406 10.878 2.66406 9.24468 3.5614 8.14202C3.73473 7.92868 3.92762 7.73579 4.14006 7.56335C5.24273 6.66602 6.87606 6.66602 10.1427 6.66602Z" fill="#282828"/>
<path d="M12 4.26954C12.2755 3.48883 12.7863 2.81279 13.4621 2.3346C14.1379 1.8564 14.9454 1.59961 15.7733 1.59961C16.6012 1.59961 17.4087 1.8564 18.0845 2.3346C18.7603 2.81279 19.2712 3.48883 19.5467 4.26954" stroke="#282828" stroke-width="2.8" stroke-linecap="round"/>
</svg>
